# xmcd
#
# Track frame offsets: 
#        150
#        24363
#        50496
#        70224
#        88616
#        105515
#        126183
#        143103
#        162595
#        195256
#        214997
#        245327
#
# Disc length: 3474 seconds
#
# Revision: 0
# Processed by: cddbd v1.5.2PL0 Copyright (c) Steve Scherf et al.
# Submitted via: ExactAudioCopy v0.99pb3
#
DISCID=a40d900c
DTITLE=J. C. Smith Band - Defining Cool
DYEAR=2009
DGENRE=Blues
TTITLE0=Rite On Time
TTITLE1=Going Down Slow
TTITLE2=A Fool For You
TTITLE3=Bluezman
TTITLE4=She Walks Right In
TTITLE5=Lonesome Blues, Duke's Blues
TTITLE6=Going Down
TTITLE7=I Walked All Night Long
TTITLE8=Outskirts Of Town
TTITLE9=Ballad Of Robert Johnson
TTITLE10=All Day Long
TTITLE11=Satisfied
EXTD=
EXTT0=
EXTT1=
EXTT2=
EXTT3=
EXTT4=
EXTT5=
EXTT6=
EXTT7=
EXTT8=
EXTT9=
EXTT10=
EXTT11=
PLAYORDER=
